<svg width="30" height="30" viewBox="0 0 30 30" fill="none" xmlns="http://www.w3.org/2000/svg">
<g clip-path="url(#clip0_3:5)">
<path d="M15.0963 28.4034C14.7305 28.4034 14.3821 28.263 14.1168 28.0081C14.0976 27.9897 11.8147 25.782 2.59367 16.561L2.52938 16.4967C2.43456 16.4028 2.38806 16.3488 2.34155 16.2943C0.835758 14.6664 0 12.5494 0 10.3463C0 5.52187 3.92525 1.59662 8.74968 1.59662C11.1175 1.59662 13.3665 2.54978 14.9996 4.2283C16.6331 2.5497 18.8826 1.59662 21.2504 1.59662C26.0748 1.59662 30.0001 5.52187 30.0001 10.3463C30.0001 12.7639 29.0314 15.013 27.2717 16.6835C27.2459 16.7136 27.2224 16.7375 27.205 16.7544C17.9097 26.0497 16.1466 27.9348 16.1297 27.9527C15.871 28.2292 15.5081 28.3931 15.1324 28.4025L15.0963 28.4034ZM8.75016 2.53617C4.44318 2.53617 0.939549 6.0398 0.939549 10.3468C0.939549 12.3127 1.68702 14.2035 3.04401 15.6712C3.09004 15.7242 3.12286 15.7628 3.19242 15.8318L3.25812 15.8975C12.4763 25.1158 14.7474 27.3118 14.7676 27.3314C14.8564 27.4169 14.9719 27.4639 15.093 27.4648L15.1127 27.4643C15.2352 27.461 15.3574 27.4061 15.4438 27.3136C15.4574 27.2986 17.2351 25.3984 26.5397 16.0938L26.6072 16.021C28.19 14.5284 29.062 12.5132 29.062 10.3472C29.062 6.04027 25.5583 2.53664 21.2513 2.53664C18.9802 2.53664 16.8317 3.51844 15.3564 5.2308L15.0005 5.64352L14.6446 5.23033C13.1698 3.51797 11.0217 2.53617 8.75016 2.53617Z" fill="white"/>
</g>
<defs>
<clipPath id="clip0_3:5">
<rect width="30" height="30" fill="white"/>
</clipPath>
</defs>
</svg>
