<svg width="23" height="44" viewBox="0 0 23 44" fill="none" xmlns="http://www.w3.org/2000/svg">
<path d="M11.5227 1C11.0842 6.40678 8.36586 17.1644 1 16.9407C3.44276 20.7627 8.14037 29.5254 7.38875 34C8.89199 34 13.0259 21.4153 20.3542 19.178C27.6824 16.9407 7.95247 11.6271 11.5227 1Z" stroke="white"/>
<path d="M11.4773 6C11.9158 11.4068 14.6341 22.1644 22 21.9407C19.5572 25.7627 14.8596 34.5254 15.6112 39C14.108 39 9.97411 26.4153 2.64583 24.178C-4.68244 21.9407 15.0475 16.6271 11.4773 6Z" stroke="white"/>
<path d="M11.514 10C11.2426 15.4068 9.55982 26.1644 5 25.9407C6.51218 29.7627 9.42023 38.5254 8.95494 43C9.88552 43 12.4446 30.4153 16.9812 28.178C21.5177 25.9407 9.30391 20.6271 11.514 10Z" stroke="white"/>
</svg>
